<mxfile host="app.diagrams.net" modified="2024-03-29T08:02:22.571Z" agent="Mozilla/5.0 (Windows NT 10.0; Win64; x64) AppleWebKit/537.36 (KHTML, like Gecko) Chrome/123.0.0.0 Safari/537.36" etag="nNtD5WdJ9zZwTP1xJJJW" version="24.0.8" type="github">
  <diagram name="Page-1" id="hrOOy4sgIWOlT0UUeVAK">
    <mxGraphModel dx="2812" dy="2399" grid="1" gridSize="10" guides="1" tooltips="1" connect="1" arrows="1" fold="1" page="1" pageScale="1" pageWidth="827" pageHeight="1169" math="0" shadow="0">
      <root>
        <mxCell id="0" />
        <mxCell id="1" parent="0" />
        <mxCell id="6ZVfJgedg7jauPBtiu2V-1" value="" style="whiteSpace=wrap;html=1;aspect=fixed;" parent="1" vertex="1">
          <mxGeometry x="100" y="80" width="200" height="200" as="geometry" />
        </mxCell>
        <mxCell id="6ZVfJgedg7jauPBtiu2V-2" value="" style="endArrow=none;html=1;rounded=0;exitX=0;exitY=0.5;exitDx=0;exitDy=0;entryX=1;entryY=0.5;entryDx=0;entryDy=0;" parent="1" edge="1">
          <mxGeometry width="50" height="50" relative="1" as="geometry">
            <mxPoint x="100" y="210" as="sourcePoint" />
            <mxPoint x="300" y="210" as="targetPoint" />
          </mxGeometry>
        </mxCell>
        <mxCell id="6ZVfJgedg7jauPBtiu2V-4" value="" style="endArrow=none;html=1;rounded=0;exitX=0;exitY=0.5;exitDx=0;exitDy=0;entryX=1;entryY=0.5;entryDx=0;entryDy=0;" parent="1" edge="1">
          <mxGeometry width="50" height="50" relative="1" as="geometry">
            <mxPoint x="100" y="120" as="sourcePoint" />
            <mxPoint x="300" y="120" as="targetPoint" />
          </mxGeometry>
        </mxCell>
        <mxCell id="6ZVfJgedg7jauPBtiu2V-6" value="Login" style="text;html=1;align=center;verticalAlign=middle;whiteSpace=wrap;rounded=0;" parent="1" vertex="1">
          <mxGeometry x="170" y="90" width="60" height="30" as="geometry" />
        </mxCell>
        <mxCell id="6ZVfJgedg7jauPBtiu2V-7" value="- username string" style="text;html=1;align=center;verticalAlign=middle;whiteSpace=wrap;rounded=0;" parent="1" vertex="1">
          <mxGeometry x="120" y="130" width="150" height="30" as="geometry" />
        </mxCell>
        <mxCell id="6ZVfJgedg7jauPBtiu2V-10" value="- password string" style="text;html=1;align=center;verticalAlign=middle;whiteSpace=wrap;rounded=0;" parent="1" vertex="1">
          <mxGeometry x="120" y="150" width="150" height="30" as="geometry" />
        </mxCell>
        <mxCell id="6ZVfJgedg7jauPBtiu2V-11" value="# email string" style="text;html=1;align=center;verticalAlign=middle;whiteSpace=wrap;rounded=0;" parent="1" vertex="1">
          <mxGeometry x="110" y="170" width="150" height="30" as="geometry" />
        </mxCell>
        <mxCell id="6ZVfJgedg7jauPBtiu2V-12" value="+ login() void" style="text;html=1;align=center;verticalAlign=middle;whiteSpace=wrap;rounded=0;" parent="1" vertex="1">
          <mxGeometry x="120" y="210" width="150" height="30" as="geometry" />
        </mxCell>
        <mxCell id="6ZVfJgedg7jauPBtiu2V-13" value="+ signUp() void" style="text;html=1;align=center;verticalAlign=middle;whiteSpace=wrap;rounded=0;" parent="1" vertex="1">
          <mxGeometry x="125" y="230" width="150" height="30" as="geometry" />
        </mxCell>
        <mxCell id="6ZVfJgedg7jauPBtiu2V-34" value="+ forgotPassword() void" style="text;html=1;align=center;verticalAlign=middle;whiteSpace=wrap;rounded=0;" parent="1" vertex="1">
          <mxGeometry x="125" y="250" width="150" height="30" as="geometry" />
        </mxCell>
        <mxCell id="6ZVfJgedg7jauPBtiu2V-38" value="" style="whiteSpace=wrap;html=1;aspect=fixed;" parent="1" vertex="1">
          <mxGeometry x="530" y="80" width="200" height="200" as="geometry" />
        </mxCell>
        <mxCell id="6ZVfJgedg7jauPBtiu2V-39" value="" style="endArrow=none;html=1;rounded=0;exitX=0;exitY=0.5;exitDx=0;exitDy=0;entryX=1;entryY=0.5;entryDx=0;entryDy=0;" parent="1" edge="1">
          <mxGeometry width="50" height="50" relative="1" as="geometry">
            <mxPoint x="530" y="210" as="sourcePoint" />
            <mxPoint x="730" y="210" as="targetPoint" />
          </mxGeometry>
        </mxCell>
        <mxCell id="6ZVfJgedg7jauPBtiu2V-40" value="" style="endArrow=none;html=1;rounded=0;exitX=0;exitY=0.5;exitDx=0;exitDy=0;entryX=1;entryY=0.5;entryDx=0;entryDy=0;" parent="1" edge="1">
          <mxGeometry width="50" height="50" relative="1" as="geometry">
            <mxPoint x="530" y="120" as="sourcePoint" />
            <mxPoint x="730" y="120" as="targetPoint" />
          </mxGeometry>
        </mxCell>
        <mxCell id="6ZVfJgedg7jauPBtiu2V-41" value="Transaction" style="text;html=1;align=center;verticalAlign=middle;whiteSpace=wrap;rounded=0;" parent="1" vertex="1">
          <mxGeometry x="600" y="90" width="60" height="30" as="geometry" />
        </mxCell>
        <mxCell id="6ZVfJgedg7jauPBtiu2V-42" value="- accountNumber long" style="text;html=1;align=center;verticalAlign=middle;whiteSpace=wrap;rounded=0;" parent="1" vertex="1">
          <mxGeometry x="550" y="130" width="150" height="30" as="geometry" />
        </mxCell>
        <mxCell id="6ZVfJgedg7jauPBtiu2V-43" value="- balance double" style="text;html=1;align=center;verticalAlign=middle;whiteSpace=wrap;rounded=0;" parent="1" vertex="1">
          <mxGeometry x="540" y="150" width="150" height="30" as="geometry" />
        </mxCell>
        <mxCell id="6ZVfJgedg7jauPBtiu2V-44" value="- deposit() void" style="text;html=1;align=center;verticalAlign=middle;whiteSpace=wrap;rounded=0;" parent="1" vertex="1">
          <mxGeometry x="550" y="210" width="150" height="30" as="geometry" />
        </mxCell>
        <mxCell id="6ZVfJgedg7jauPBtiu2V-45" value="- withdraw() void" style="text;html=1;align=center;verticalAlign=middle;whiteSpace=wrap;rounded=0;" parent="1" vertex="1">
          <mxGeometry x="555" y="230" width="150" height="30" as="geometry" />
        </mxCell>
        <mxCell id="6ZVfJgedg7jauPBtiu2V-46" value="# transactionId string" style="text;html=1;align=center;verticalAlign=middle;whiteSpace=wrap;rounded=0;" parent="1" vertex="1">
          <mxGeometry x="550" y="170" width="150" height="30" as="geometry" />
        </mxCell>
        <mxCell id="6ZVfJgedg7jauPBtiu2V-47" value="" style="whiteSpace=wrap;html=1;aspect=fixed;" parent="1" vertex="1">
          <mxGeometry x="100" y="360" width="200" height="200" as="geometry" />
        </mxCell>
        <mxCell id="6ZVfJgedg7jauPBtiu2V-48" value="" style="endArrow=none;html=1;rounded=0;exitX=0;exitY=0.5;exitDx=0;exitDy=0;entryX=1;entryY=0.5;entryDx=0;entryDy=0;" parent="1" edge="1">
          <mxGeometry width="50" height="50" relative="1" as="geometry">
            <mxPoint x="100" y="490" as="sourcePoint" />
            <mxPoint x="300" y="490" as="targetPoint" />
          </mxGeometry>
        </mxCell>
        <mxCell id="6ZVfJgedg7jauPBtiu2V-49" value="" style="endArrow=none;html=1;rounded=0;exitX=0;exitY=0.5;exitDx=0;exitDy=0;entryX=1;entryY=0.5;entryDx=0;entryDy=0;" parent="1" edge="1">
          <mxGeometry width="50" height="50" relative="1" as="geometry">
            <mxPoint x="100" y="400" as="sourcePoint" />
            <mxPoint x="300" y="400" as="targetPoint" />
          </mxGeometry>
        </mxCell>
        <mxCell id="6ZVfJgedg7jauPBtiu2V-50" value="Account" style="text;html=1;align=center;verticalAlign=middle;whiteSpace=wrap;rounded=0;" parent="1" vertex="1">
          <mxGeometry x="170" y="370" width="60" height="30" as="geometry" />
        </mxCell>
        <mxCell id="6ZVfJgedg7jauPBtiu2V-51" value="- accountType string" style="text;html=1;align=center;verticalAlign=middle;whiteSpace=wrap;rounded=0;" parent="1" vertex="1">
          <mxGeometry x="120" y="430" width="150" height="30" as="geometry" />
        </mxCell>
        <mxCell id="6ZVfJgedg7jauPBtiu2V-52" value="- isActive boolean" style="text;html=1;align=center;verticalAlign=middle;whiteSpace=wrap;rounded=0;" parent="1" vertex="1">
          <mxGeometry x="110" y="450" width="150" height="30" as="geometry" />
        </mxCell>
        <mxCell id="6ZVfJgedg7jauPBtiu2V-53" value="+ calculateInterest() void" style="text;html=1;align=center;verticalAlign=middle;whiteSpace=wrap;rounded=0;" parent="1" vertex="1">
          <mxGeometry x="120" y="490" width="150" height="30" as="geometry" />
        </mxCell>
        <mxCell id="6ZVfJgedg7jauPBtiu2V-54" value="+ getTransactionHistory() void" style="text;html=1;align=center;verticalAlign=middle;whiteSpace=wrap;rounded=0;" parent="1" vertex="1">
          <mxGeometry x="125" y="510" width="165" height="30" as="geometry" />
        </mxCell>
        <mxCell id="6ZVfJgedg7jauPBtiu2V-56" value="- accountHolder string" style="text;html=1;align=center;verticalAlign=middle;whiteSpace=wrap;rounded=0;" parent="1" vertex="1">
          <mxGeometry x="110" y="410" width="150" height="30" as="geometry" />
        </mxCell>
        <mxCell id="6ZVfJgedg7jauPBtiu2V-58" value="" style="whiteSpace=wrap;html=1;aspect=fixed;" parent="1" vertex="1">
          <mxGeometry x="530" y="360" width="200" height="200" as="geometry" />
        </mxCell>
        <mxCell id="6ZVfJgedg7jauPBtiu2V-59" value="" style="endArrow=none;html=1;rounded=0;exitX=0;exitY=0.5;exitDx=0;exitDy=0;entryX=1;entryY=0.5;entryDx=0;entryDy=0;" parent="1" edge="1">
          <mxGeometry width="50" height="50" relative="1" as="geometry">
            <mxPoint x="530" y="490" as="sourcePoint" />
            <mxPoint x="730" y="490" as="targetPoint" />
          </mxGeometry>
        </mxCell>
        <mxCell id="6ZVfJgedg7jauPBtiu2V-60" value="" style="endArrow=none;html=1;rounded=0;exitX=0;exitY=0.5;exitDx=0;exitDy=0;entryX=1;entryY=0.5;entryDx=0;entryDy=0;" parent="1" edge="1">
          <mxGeometry width="50" height="50" relative="1" as="geometry">
            <mxPoint x="530" y="400" as="sourcePoint" />
            <mxPoint x="730" y="400" as="targetPoint" />
          </mxGeometry>
        </mxCell>
        <mxCell id="6ZVfJgedg7jauPBtiu2V-61" value="Loan" style="text;html=1;align=center;verticalAlign=middle;whiteSpace=wrap;rounded=0;" parent="1" vertex="1">
          <mxGeometry x="600" y="370" width="60" height="30" as="geometry" />
        </mxCell>
        <mxCell id="6ZVfJgedg7jauPBtiu2V-62" value="- loanAmount double" style="text;html=1;align=center;verticalAlign=middle;whiteSpace=wrap;rounded=0;" parent="1" vertex="1">
          <mxGeometry x="540" y="430" width="150" height="30" as="geometry" />
        </mxCell>
        <mxCell id="6ZVfJgedg7jauPBtiu2V-63" value="+ loanType string" style="text;html=1;align=center;verticalAlign=middle;whiteSpace=wrap;rounded=0;" parent="1" vertex="1">
          <mxGeometry x="530" y="450" width="150" height="30" as="geometry" />
        </mxCell>
        <mxCell id="6ZVfJgedg7jauPBtiu2V-64" value="- prepayment() void" style="text;html=1;align=center;verticalAlign=middle;whiteSpace=wrap;rounded=0;" parent="1" vertex="1">
          <mxGeometry x="550" y="490" width="150" height="30" as="geometry" />
        </mxCell>
        <mxCell id="6ZVfJgedg7jauPBtiu2V-65" value="- getEmi() void" style="text;html=1;align=center;verticalAlign=middle;whiteSpace=wrap;rounded=0;" parent="1" vertex="1">
          <mxGeometry x="530" y="510" width="165" height="30" as="geometry" />
        </mxCell>
        <mxCell id="6ZVfJgedg7jauPBtiu2V-66" value="- loanNumber long" style="text;html=1;align=center;verticalAlign=middle;whiteSpace=wrap;rounded=0;" parent="1" vertex="1">
          <mxGeometry x="540" y="410" width="150" height="30" as="geometry" />
        </mxCell>
        <mxCell id="6ZVfJgedg7jauPBtiu2V-68" value="" style="whiteSpace=wrap;html=1;aspect=fixed;" parent="1" vertex="1">
          <mxGeometry x="-110" y="680" width="200" height="200" as="geometry" />
        </mxCell>
        <mxCell id="6ZVfJgedg7jauPBtiu2V-69" value="" style="endArrow=none;html=1;rounded=0;exitX=0;exitY=0.5;exitDx=0;exitDy=0;entryX=1;entryY=0.5;entryDx=0;entryDy=0;" parent="1" edge="1">
          <mxGeometry width="50" height="50" relative="1" as="geometry">
            <mxPoint x="-110" y="810" as="sourcePoint" />
            <mxPoint x="90" y="810" as="targetPoint" />
          </mxGeometry>
        </mxCell>
        <mxCell id="6ZVfJgedg7jauPBtiu2V-70" value="" style="endArrow=none;html=1;rounded=0;exitX=0;exitY=0.5;exitDx=0;exitDy=0;entryX=1;entryY=0.5;entryDx=0;entryDy=0;" parent="1" edge="1">
          <mxGeometry width="50" height="50" relative="1" as="geometry">
            <mxPoint x="-110" y="720" as="sourcePoint" />
            <mxPoint x="90" y="720" as="targetPoint" />
          </mxGeometry>
        </mxCell>
        <mxCell id="6ZVfJgedg7jauPBtiu2V-71" value="Savings Account" style="text;html=1;align=center;verticalAlign=middle;whiteSpace=wrap;rounded=0;" parent="1" vertex="1">
          <mxGeometry x="-65" y="690" width="100" height="30" as="geometry" />
        </mxCell>
        <mxCell id="6ZVfJgedg7jauPBtiu2V-72" value="# dateOfOpening string" style="text;html=1;align=center;verticalAlign=middle;whiteSpace=wrap;rounded=0;" parent="1" vertex="1">
          <mxGeometry x="-89" y="750" width="150" height="30" as="geometry" />
        </mxCell>
        <mxCell id="6ZVfJgedg7jauPBtiu2V-74" value="+ setInterestRate() void" style="text;html=1;align=center;verticalAlign=middle;whiteSpace=wrap;rounded=0;" parent="1" vertex="1">
          <mxGeometry x="-90" y="810" width="150" height="30" as="geometry" />
        </mxCell>
        <mxCell id="6ZVfJgedg7jauPBtiu2V-75" value="+ checkMinBalance() void" style="text;html=1;align=center;verticalAlign=middle;whiteSpace=wrap;rounded=0;" parent="1" vertex="1">
          <mxGeometry x="-92.5" y="830" width="165" height="30" as="geometry" />
        </mxCell>
        <mxCell id="6ZVfJgedg7jauPBtiu2V-76" value="- minBalance double" style="text;html=1;align=center;verticalAlign=middle;whiteSpace=wrap;rounded=0;" parent="1" vertex="1">
          <mxGeometry x="-100" y="730" width="150" height="30" as="geometry" />
        </mxCell>
        <mxCell id="6ZVfJgedg7jauPBtiu2V-77" value="" style="whiteSpace=wrap;html=1;aspect=fixed;" parent="1" vertex="1">
          <mxGeometry x="300" y="680" width="200" height="200" as="geometry" />
        </mxCell>
        <mxCell id="6ZVfJgedg7jauPBtiu2V-78" value="" style="endArrow=none;html=1;rounded=0;exitX=0;exitY=0.5;exitDx=0;exitDy=0;entryX=1;entryY=0.5;entryDx=0;entryDy=0;" parent="1" edge="1">
          <mxGeometry width="50" height="50" relative="1" as="geometry">
            <mxPoint x="300" y="810" as="sourcePoint" />
            <mxPoint x="500" y="810" as="targetPoint" />
          </mxGeometry>
        </mxCell>
        <mxCell id="6ZVfJgedg7jauPBtiu2V-79" value="" style="endArrow=none;html=1;rounded=0;exitX=0;exitY=0.5;exitDx=0;exitDy=0;entryX=1;entryY=0.5;entryDx=0;entryDy=0;" parent="1" edge="1">
          <mxGeometry width="50" height="50" relative="1" as="geometry">
            <mxPoint x="300" y="720" as="sourcePoint" />
            <mxPoint x="500" y="720" as="targetPoint" />
          </mxGeometry>
        </mxCell>
        <mxCell id="6ZVfJgedg7jauPBtiu2V-80" value="Current Account" style="text;html=1;align=center;verticalAlign=middle;whiteSpace=wrap;rounded=0;" parent="1" vertex="1">
          <mxGeometry x="355" y="690" width="90" height="30" as="geometry" />
        </mxCell>
        <mxCell id="6ZVfJgedg7jauPBtiu2V-81" value="# dateOfOpening string" style="text;html=1;align=center;verticalAlign=middle;whiteSpace=wrap;rounded=0;" parent="1" vertex="1">
          <mxGeometry x="325" y="750" width="150" height="30" as="geometry" />
        </mxCell>
        <mxCell id="6ZVfJgedg7jauPBtiu2V-83" value="+ applyChequeBook() void" style="text;html=1;align=center;verticalAlign=middle;whiteSpace=wrap;rounded=0;" parent="1" vertex="1">
          <mxGeometry x="320" y="810" width="150" height="30" as="geometry" />
        </mxCell>
        <mxCell id="6ZVfJgedg7jauPBtiu2V-84" value="+ applyOverDraft() void" style="text;html=1;align=center;verticalAlign=middle;whiteSpace=wrap;rounded=0;" parent="1" vertex="1">
          <mxGeometry x="305" y="830" width="165" height="30" as="geometry" />
        </mxCell>
        <mxCell id="6ZVfJgedg7jauPBtiu2V-85" value="- accountLimit double" style="text;html=1;align=center;verticalAlign=middle;whiteSpace=wrap;rounded=0;" parent="1" vertex="1">
          <mxGeometry x="320" y="730" width="150" height="30" as="geometry" />
        </mxCell>
        <mxCell id="6ZVfJgedg7jauPBtiu2V-99" value="" style="whiteSpace=wrap;html=1;aspect=fixed;" parent="1" vertex="1">
          <mxGeometry x="-300" y="280" width="220" height="220" as="geometry" />
        </mxCell>
        <mxCell id="6ZVfJgedg7jauPBtiu2V-100" value="" style="endArrow=none;html=1;rounded=0;exitX=0;exitY=0.5;exitDx=0;exitDy=0;" parent="1" edge="1">
          <mxGeometry width="50" height="50" relative="1" as="geometry">
            <mxPoint x="-300" y="410" as="sourcePoint" />
            <mxPoint x="-80" y="410" as="targetPoint" />
          </mxGeometry>
        </mxCell>
        <mxCell id="6ZVfJgedg7jauPBtiu2V-101" value="" style="endArrow=none;html=1;rounded=0;exitX=0;exitY=0.5;exitDx=0;exitDy=0;" parent="1" edge="1">
          <mxGeometry width="50" height="50" relative="1" as="geometry">
            <mxPoint x="-300" y="320" as="sourcePoint" />
            <mxPoint x="-80" y="320" as="targetPoint" />
          </mxGeometry>
        </mxCell>
        <mxCell id="6ZVfJgedg7jauPBtiu2V-102" value="Sign Up" style="text;html=1;align=center;verticalAlign=middle;whiteSpace=wrap;rounded=0;" parent="1" vertex="1">
          <mxGeometry x="-225" y="290" width="60" height="30" as="geometry" />
        </mxCell>
        <mxCell id="6ZVfJgedg7jauPBtiu2V-103" value="- name string" style="text;html=1;align=center;verticalAlign=middle;whiteSpace=wrap;rounded=0;" parent="1" vertex="1">
          <mxGeometry x="-280" y="330" width="150" height="30" as="geometry" />
        </mxCell>
        <mxCell id="6ZVfJgedg7jauPBtiu2V-104" value="- dateOfBirth string" style="text;html=1;align=center;verticalAlign=middle;whiteSpace=wrap;rounded=0;" parent="1" vertex="1">
          <mxGeometry x="-260" y="350" width="150" height="30" as="geometry" />
        </mxCell>
        <mxCell id="6ZVfJgedg7jauPBtiu2V-105" value="- creditScore double" style="text;html=1;align=center;verticalAlign=middle;whiteSpace=wrap;rounded=0;" parent="1" vertex="1">
          <mxGeometry x="-260" y="370" width="150" height="30" as="geometry" />
        </mxCell>
        <mxCell id="6ZVfJgedg7jauPBtiu2V-107" value="+ applyAccount() void" style="text;html=1;align=center;verticalAlign=middle;whiteSpace=wrap;rounded=0;" parent="1" vertex="1">
          <mxGeometry x="-270" y="440" width="150" height="30" as="geometry" />
        </mxCell>
        <mxCell id="6ZVfJgedg7jauPBtiu2V-109" value="" style="whiteSpace=wrap;html=1;aspect=fixed;" parent="1" vertex="1">
          <mxGeometry x="-300" y="-100" width="220" height="220" as="geometry" />
        </mxCell>
        <mxCell id="6ZVfJgedg7jauPBtiu2V-110" value="" style="endArrow=none;html=1;rounded=0;exitX=0;exitY=0.5;exitDx=0;exitDy=0;" parent="1" edge="1">
          <mxGeometry width="50" height="50" relative="1" as="geometry">
            <mxPoint x="-300" y="30" as="sourcePoint" />
            <mxPoint x="-80" y="30" as="targetPoint" />
          </mxGeometry>
        </mxCell>
        <mxCell id="6ZVfJgedg7jauPBtiu2V-111" value="" style="endArrow=none;html=1;rounded=0;exitX=0;exitY=0.5;exitDx=0;exitDy=0;" parent="1" edge="1">
          <mxGeometry width="50" height="50" relative="1" as="geometry">
            <mxPoint x="-300" y="-60" as="sourcePoint" />
            <mxPoint x="-80" y="-60" as="targetPoint" />
          </mxGeometry>
        </mxCell>
        <mxCell id="6ZVfJgedg7jauPBtiu2V-112" value="Forgot Password" style="text;html=1;align=center;verticalAlign=middle;whiteSpace=wrap;rounded=0;" parent="1" vertex="1">
          <mxGeometry x="-242.5" y="-90" width="95" height="30" as="geometry" />
        </mxCell>
        <mxCell id="6ZVfJgedg7jauPBtiu2V-113" value="- newPassword string" style="text;html=1;align=center;verticalAlign=middle;whiteSpace=wrap;rounded=0;" parent="1" vertex="1">
          <mxGeometry x="-270" y="-40" width="150" height="30" as="geometry" />
        </mxCell>
        <mxCell id="6ZVfJgedg7jauPBtiu2V-114" value="- authenticationToken string" style="text;html=1;align=center;verticalAlign=middle;whiteSpace=wrap;rounded=0;" parent="1" vertex="1">
          <mxGeometry x="-260" y="-20" width="150" height="30" as="geometry" />
        </mxCell>
        <mxCell id="6ZVfJgedg7jauPBtiu2V-116" value="+ resetPassword() void" style="text;html=1;align=center;verticalAlign=middle;whiteSpace=wrap;rounded=0;" parent="1" vertex="1">
          <mxGeometry x="-270" y="60" width="150" height="30" as="geometry" />
        </mxCell>
        <mxCell id="6ZVfJgedg7jauPBtiu2V-117" value="" style="endArrow=classic;html=1;rounded=0;exitX=1;exitY=0.25;exitDx=0;exitDy=0;entryX=-0.012;entryY=0.95;entryDx=0;entryDy=0;entryPerimeter=0;" parent="1" source="6ZVfJgedg7jauPBtiu2V-109" target="6ZVfJgedg7jauPBtiu2V-1" edge="1">
          <mxGeometry width="50" height="50" relative="1" as="geometry">
            <mxPoint x="100" y="430" as="sourcePoint" />
            <mxPoint x="80" y="250" as="targetPoint" />
            <Array as="points">
              <mxPoint y="-45" />
              <mxPoint y="270" />
              <mxPoint x="50" y="270" />
            </Array>
          </mxGeometry>
        </mxCell>
        <mxCell id="6ZVfJgedg7jauPBtiu2V-118" value="" style="endArrow=classic;html=1;rounded=0;" parent="1" edge="1">
          <mxGeometry width="50" height="50" relative="1" as="geometry">
            <mxPoint x="-80" y="310" as="sourcePoint" />
            <mxPoint x="300" y="250" as="targetPoint" />
            <Array as="points">
              <mxPoint x="400" y="310" />
              <mxPoint x="400" y="250" />
            </Array>
          </mxGeometry>
        </mxCell>
        <mxCell id="6ZVfJgedg7jauPBtiu2V-119" value="" style="endArrow=classic;html=1;rounded=0;entryX=-0.013;entryY=0.37;entryDx=0;entryDy=0;entryPerimeter=0;" parent="1" target="6ZVfJgedg7jauPBtiu2V-38" edge="1">
          <mxGeometry width="50" height="50" relative="1" as="geometry">
            <mxPoint x="300" y="442" as="sourcePoint" />
            <mxPoint x="430" y="160" as="targetPoint" />
            <Array as="points">
              <mxPoint x="440" y="442" />
              <mxPoint x="440" y="154" />
            </Array>
          </mxGeometry>
        </mxCell>
        <mxCell id="6ZVfJgedg7jauPBtiu2V-120" value="" style="endArrow=classic;html=1;rounded=0;exitX=0;exitY=0.5;exitDx=0;exitDy=0;" parent="1" source="6ZVfJgedg7jauPBtiu2V-47" edge="1">
          <mxGeometry width="50" height="50" relative="1" as="geometry">
            <mxPoint x="270" y="520" as="sourcePoint" />
            <mxPoint x="10" y="680" as="targetPoint" />
            <Array as="points">
              <mxPoint x="10" y="460" />
            </Array>
          </mxGeometry>
        </mxCell>
        <mxCell id="6ZVfJgedg7jauPBtiu2V-121" value="" style="endArrow=classic;html=1;rounded=0;exitX=1;exitY=0.5;exitDx=0;exitDy=0;entryX=0.45;entryY=0;entryDx=0;entryDy=0;entryPerimeter=0;" parent="1" source="6ZVfJgedg7jauPBtiu2V-47" target="6ZVfJgedg7jauPBtiu2V-77" edge="1">
          <mxGeometry width="50" height="50" relative="1" as="geometry">
            <mxPoint x="110" y="470" as="sourcePoint" />
            <mxPoint x="390" y="670" as="targetPoint" />
            <Array as="points">
              <mxPoint x="390" y="460" />
            </Array>
          </mxGeometry>
        </mxCell>
        <mxCell id="6ZVfJgedg7jauPBtiu2V-122" value="" style="endArrow=classic;html=1;rounded=0;exitX=0.5;exitY=1;exitDx=0;exitDy=0;entryX=1;entryY=0.416;entryDx=0;entryDy=0;entryPerimeter=0;" parent="1" source="6ZVfJgedg7jauPBtiu2V-47" target="6ZVfJgedg7jauPBtiu2V-58" edge="1">
          <mxGeometry width="50" height="50" relative="1" as="geometry">
            <mxPoint x="210" y="770" as="sourcePoint" />
            <mxPoint x="750" y="600" as="targetPoint" />
            <Array as="points">
              <mxPoint x="200" y="950" />
              <mxPoint x="800" y="950" />
              <mxPoint x="800" y="760" />
              <mxPoint x="800" y="443" />
            </Array>
          </mxGeometry>
        </mxCell>
      </root>
    </mxGraphModel>
  </diagram>
</mxfile>
